<svg width="16" height="16" xmlns="http://www.w3.org/2000/svg">

 <g>
  <title>Layer 1</title>
  <path id="svg_1" fill="#39385b" d="m7,1.00781c-0.29687,-0.0039 -0.57812,0.125 -0.76953,0.35157l-3.23047,3.64062l-1,0c-1.09375,0 -2,0.84375 -2,2l0,2c0,1.08984 0.91016,2 2,2l1,0l3.23047,3.64063c0.21094,0.2539 0.49219,0.36328 0.76953,0.35937l0,-13.99219zm6.46094,0.96094c-0.19141,-0.00391 -0.38672,0.05469 -0.5586,0.16797c-0.45703,0.3125 -0.57812,0.93359 -0.26953,1.39062c1.82422,2.70704 1.82422,6.23829 0,8.94532c-0.30859,0.45703 -0.1875,1.07812 0.26953,1.39062c0.45704,0.3086 1.07813,0.1875 1.39063,-0.26953c1.13672,-1.69141 1.70703,-3.64062 1.70703,-5.59375s-0.57031,-3.90234 -1.70703,-5.59375c-0.19531,-0.28516 -0.51172,-0.4375 -0.83203,-0.4375zm-3.42188,2.01953c-0.22265,-0.00781 -0.45312,0.0586 -0.64453,0.20313c-0.26172,0.19922 -0.39453,0.5 -0.39453,0.80468l0,0.0586c0.01172,0.1914 0.07422,0.375 0.19922,0.53515c1.07422,1.42969 1.07422,3.39063 0,4.81641c-0.125,0.16406 -0.1875,0.34766 -0.19922,0.53516l0,0.0625c0,0.30468 0.13281,0.60547 0.39453,0.80468c0.44141,0.33204 1.06641,0.24219 1.39844,-0.19921c0.80469,-1.06641 1.20703,-2.33594 1.20703,-3.60938s-0.40234,-2.54297 -1.20703,-3.61328c-0.1836,-0.24609 -0.46485,-0.38281 -0.75391,-0.39844zm0,0"/>
 </g>
</svg>