<svg width="16" height="16" xmlns="http://www.w3.org/2000/svg">

 <g>
  <title>Layer 1</title>
  <g id="svg_1" fill="#e0e0e0">
   <path id="svg_2" d="m6.91845,10.8472l2.37518,0l0,1.46746l-2.37518,0l0,-1.46746zm0,-7.15821l2.37518,0l0,3.7842l-0.23401,2.06254l-1.89546,0l-0.24571,-2.06254l0,-3.7842z"/>
   <path id="svg_3" stroke-width="0.88672" d="m8.05033,1.15228a6.89837,6.89837 0 0 0 -6.89805,6.89805a6.89837,6.89837 0 0 0 6.89805,6.89978a6.89837,6.89837 0 0 0 6.89978,-6.89978a6.89837,6.89837 0 0 0 -6.89978,-6.89805zm-0.02944,1.14303a5.66599,5.66599 0 0 1 5.66669,5.66496a5.66599,5.66599 0 0 1 -5.66669,5.66669a5.66599,5.66599 0 0 1 -5.66669,-5.66669a5.66599,5.66599 0 0 1 5.66669,-5.66496z"/>
  </g>
 </g>
</svg>