<svg width="16" height="16" xmlns="http://www.w3.org/2000/svg">
 <g>
  <title>Layer 1</title>
  <path d="m2.21499,5.79676c0,1.51035 0.60457,2.93064 1.70293,3.99925l-0.94744,0.92252c-1.35135,-1.31499 -2.0955,-3.06316 -2.0955,-4.92177s0.74329,-3.60681 2.09377,-4.92006l0.94744,0.9225c-1.0975,1.06692 -1.7012,2.48721 -1.7012,3.99756zm3.75309,-1.99964l-0.94744,-0.92252c-0.80088,0.7815 -1.2423,1.81955 -1.2423,2.92213c0,1.10429 0.44145,2.14235 1.24406,2.92213l0.94744,-0.92252c-0.54963,-0.53346 -0.85147,-1.24361 -0.85147,-1.99964c-0.00003,-0.75426 0.30184,-1.46441 0.84971,-1.99958zm7.10485,-2.92213l-0.94744,0.92252c1.09836,1.06863 1.70293,2.48892 1.70293,3.99925s-0.6037,2.93064 -1.70031,3.99925l0.94744,0.92252c1.34961,-1.31496 2.0929,-3.06316 2.0929,-4.92177c-0.00003,-1.86033 -0.74418,-3.6085 -2.09553,-4.92177l0.00001,0zm-5.05123,3.617c-0.7398,0 -1.34001,0.58443 -1.34001,1.30477c0,0.48249 0.27132,0.89874 0.67001,1.12384l0,7.8719l1.34001,0l0,-7.87106c0.39868,-0.22597 0.67001,-0.64219 0.67001,-1.12468c0,-0.72034 -0.59935,-1.30477 -1.34001,-1.30477l-0.00001,0zm2.99934,-1.61737l-0.94744,0.9225c0.54873,0.53517 0.85147,1.24532 0.85147,1.99964c0,0.75603 -0.30184,1.46618 -0.84973,1.99964l0.94744,0.92252c0.80088,-0.77982 1.2423,-1.81784 1.2423,-2.92213s-0.44142,-2.14066 -1.24403,-2.92216l-0.00001,-0.00001z" id="svg_2" stroke="null" fill="#e0e0e0"/>
 </g>

</svg>