<svg width="16" height="16" xmlns="http://www.w3.org/2000/svg">

 <g>
  <title>Layer 1</title>
  <path stroke="null" id="svg_1" fill-rule="evenodd" fill="#80a4ae" d="m5.95698,3.86021a0.59146,0.78503 0 0 0 -0.5914,0.78495l0,6.27958a0.59146,0.78503 0 0 0 0.5914,0.78495l1.1828,0a0.5914,0.78495 0 0 0 0.5914,-0.78495l0,-6.27958a0.5914,0.78495 0 0 0 -0.5914,-0.78495l-1.1828,0zm3.5484,0a0.5914,0.78495 0 0 0 -0.5914,0.78495l0,6.27958a0.5914,0.78495 0 0 0 0.5914,0.78495l1.1828,0a0.59146,0.78503 0 0 0 0.5914,-0.78495l0,-6.27958a0.59146,0.78503 0 0 0 -0.5914,-0.78495l-1.1828,0z"/>
 </g>
</svg>