<?xml version="1.0" encoding="UTF-8" standalone="no"?>
<svg
   xmlns:dc="http://purl.org/dc/elements/1.1/"
   xmlns:cc="http://creativecommons.org/ns#"
   xmlns:rdf="http://www.w3.org/1999/02/22-rdf-syntax-ns#"
   xmlns:svg="http://www.w3.org/2000/svg"
   xmlns="http://www.w3.org/2000/svg"
   xmlns:sodipodi="http://sodipodi.sourceforge.net/DTD/sodipodi-0.dtd"
   xmlns:inkscape="http://www.inkscape.org/namespaces/inkscape"
   height="16"
   viewBox="0 0 16 16"
   width="16"
   version="1.1"
   id="svg3864"
   sodipodi:docname="PlayFolder.svg"
   inkscape:version="1.0.1 (3bc2e813f5, 2020-09-07)">
  <metadata
     id="metadata3870">
    <rdf:RDF>
      <cc:Work
         rdf:about="">
        <dc:format>image/svg+xml</dc:format>
        <dc:type
           rdf:resource="http://purl.org/dc/dcmitype/StillImage" />
        <dc:title />
      </cc:Work>
    </rdf:RDF>
  </metadata>
  <defs
     id="defs3868" />
  <sodipodi:namedview
     pagecolor="#ffffff"
     bordercolor="#666666"
     borderopacity="1"
     objecttolerance="10"
     gridtolerance="10"
     guidetolerance="10"
     inkscape:pageopacity="0"
     inkscape:pageshadow="2"
     inkscape:window-width="1280"
     inkscape:window-height="738"
     id="namedview3866"
     showgrid="false"
     inkscape:zoom="33"
     inkscape:cx="8"
     inkscape:cy="8"
     inkscape:window-x="-8"
     inkscape:window-y="-8"
     inkscape:window-maximized="1"
     inkscape:current-layer="svg3864"
     inkscape:document-rotation="0" />
  <path
     d="m2 2a1 1 0 0 0 -1 1v2 6 2a1 1 0 0 0 1 1h12a1 1 0 0 0 1-1v-7a1 1 0 0 0 -1-1h-4a1 1 0 0 1 -1-1v-1a1 1 0 0 0 -1-1z"
     fill="none"
     id="path3862"
     style="stroke:#ffffff;stroke-opacity:1;fill:none;stroke-width:0.5" />
  <path
     d="M 4.5831524,3.6365878 C 4.0424672,3.646315 3.6072003,4.0753847 3.606103,4.6073689 v 7.7818141 c 1.149e-4,0.776819 0.8799951,1.240226 1.5370327,0.809404 L 11.074954,9.3076808 c 0.586875,-0.3851016 0.586875,-1.2336116 0,-1.618714 L 5.1431357,3.7980602 C 4.9772424,3.6899903 4.7820859,3.6337668 4.5831623,3.6365878 Z"
     fill="#e0e0e0"
     fill-rule="evenodd"
     id="path843"
     style="opacity:1;fill:#5ee0e0;fill-opacity:1;fill-rule:nonzero;stroke-width:0.980649;image-rendering:pixelated" />
</svg>
