<svg width="24" height="16" xmlns="http://www.w3.org/2000/svg">
 <!-- Play -->

 <!-- Pause -->
 <g>
  <title>Layer 1</title>
  <path id="svg_1" fill-rule="evenodd" fill="#80A4AE" d="m1.9883,2.99998c-0.5469,0.01 -0.98717,0.4511 -0.98828,0.998l0,8c0.00012,0.7986 0.89011,1.275 1.5547,0.8321l6,-4c0.59362,-0.3959 0.59362,-1.2682 0,-1.6641l-6,-4c-0.1678,-0.1111 -0.3652,-0.1689 -0.56641,-0.166l-0.00001,0z"/>
  <g id="svg_2">
   <path id="svg_3" fill-rule="evenodd" fill="#80A4AE" d="m11.77528,3a1,1 0 0 0 -1,1l0,8a1,1 0 0 0 1,1l2,0a1,1 0 0 0 1,-1l0,-8a1,1 0 0 0 -1,-1l-2,0zm6,0a1,1 0 0 0 -1,1l0,8a1,1 0 0 0 1,1l2,0a1,1 0 0 0 1,-1l0,-8a1,1 0 0 0 -1,-1l-2,0z"/>
  </g>
 </g>
</svg>