<svg width="16" height="16" xmlns="http://www.w3.org/2000/svg">
 <g>
  <title>Properties Icon</title>
  <path stroke="null" id="svg_1" d="m6.52237,0.09267l2.96755,0l0.49459,1.98069l0.98918,0.49517l1.48378,-0.99035l1.97837,1.98069l-0.98918,1.48552l0.49459,0.99035l1.97837,0.49517l0,2.97104l-1.97837,0.49517l-0.49459,0.99035l0.98918,1.48552l-1.97837,1.98069l-1.48378,-0.99035l-0.98918,0.49517l-0.49459,1.98069l-2.96755,0l-0.49459,-1.98069l-0.98918,-0.49517l-1.48378,0.99035l-1.97837,-1.98069l0.98918,-1.48552l-0.49459,-0.99035l-1.97837,-0.49517l0,-2.97104l1.97837,-0.49517l0.49459,-0.99035l-0.98918,-1.48552l1.97837,-1.98069l1.48378,0.99035l0.98918,-0.49517l0.49459,-1.98069zm1.48378,4.95173a2.96755,2.97104 0 1 0 0,5.94208a2.96755,2.97104 0 0 0 0,-5.94208z" fill="#e0e0e0"/>
 </g>

</svg>