<?xml version="1.0" encoding="UTF-8" standalone="no"?>
<svg
   xmlns:dc="http://purl.org/dc/elements/1.1/"
   xmlns:cc="http://creativecommons.org/ns#"
   xmlns:rdf="http://www.w3.org/1999/02/22-rdf-syntax-ns#"
   xmlns:svg="http://www.w3.org/2000/svg"
   xmlns="http://www.w3.org/2000/svg"
   xmlns:sodipodi="http://sodipodi.sourceforge.net/DTD/sodipodi-0.dtd"
   xmlns:inkscape="http://www.inkscape.org/namespaces/inkscape"
   height="20"
   viewBox="0 0 20 20"
   width="20"
   version="1.1"
   id="svg587"
   sodipodi:docname="RemoveFavorite.svg"
   inkscape:version="1.0.1 (3bc2e813f5, 2020-09-07)">
  <metadata
     id="metadata593">
    <rdf:RDF>
      <cc:Work
         rdf:about="">
        <dc:format>image/svg+xml</dc:format>
        <dc:type
           rdf:resource="http://purl.org/dc/dcmitype/StillImage" />
        <dc:title></dc:title>
      </cc:Work>
    </rdf:RDF>
  </metadata>
  <defs
     id="defs591">
    <clipPath
       clipPathUnits="userSpaceOnUse"
       id="clipPath712">
      <path
         id="path714"
         style="fill:#ff0000;fill-opacity:1;fill-rule:nonzero;stroke:none"
         d="M 1,2 V 14 H 15 V 2 Z m 9.660156,3.9921875 c -0.0013,-0.064136 0.09824,0.082033 0.134766,0.1347656 0.008,0.011489 0.01036,0.026151 0.01563,0.039062 0.0043,0.00194 0.0094,0.00189 0.01367,0.00391 0.0082,0.00385 -0.0018,0.017941 -0.002,0.027344 0.0069,0.022189 0.01717,0.04296 0.02539,0.064453 0.01781,0.07989 0.04563,0.1586933 0.05274,0.2402343 0.01216,0.1387387 0.01556,0.2788902 0.0078,0.4179688 0.0105,0.00221 0.02168,0.00499 0.03125,0.00781 0.08717,-0.06248 0.174523,-0.1272901 0.277344,-0.1484375 0.0029,-5.869e-4 0.005,0.00571 0.0078,0.00586 0.122088,-0.042443 0.276684,0.035847 0.330079,0.2851563 0.01515,0.070707 0.04068,0.1408416 0.04687,0.2128906 0.02769,0.3238696 0.0065,0.6800709 -0.04101,1.0234375 0.07104,0.1112011 0.142396,0.2219351 0.205078,0.3378906 0.03856,-0.1747621 0.07222,-0.3130041 0.0918,-0.4042968 -0.0021,-0.044973 -0.0075,-0.056626 -0.002,-0.171875 0.01197,-0.247401 0.02169,-0.2681443 0.05859,-0.4707032 0.02661,-0.046511 0.02736,-0.1482818 0.08008,-0.1386718 0.155152,0.028297 0.289481,0.1293436 0.412109,0.2285156 0.02572,0.020785 -0.0046,0.066708 -0.0078,0.099609 -0.01324,0.1372046 -0.02668,0.2747634 -0.03906,0.4121094 -0.0064,0.030696 -0.01318,0.061082 -0.01953,0.091797 1.16e-4,0.029861 0.0017,0.060035 0,0.089844 -0.0092,0.1651642 -0.0216,0.3303713 -0.04492,0.4941406 -0.02589,0.1818186 -0.187557,0.7794939 -0.216797,0.8925781 -0.03844,0.1153667 -0.07126,0.2262016 -0.107422,0.3359374 0.0018,0.115145 0.0081,0.230615 0.002,0.345703 0.0042,0.0027 0.0075,0.0029 0.01172,0.0059 0.0337,0.02339 0.06711,0.06066 0.07031,0.101564 0.0042,0.05413 -0.01386,0.106835 -0.02734,0.160156 0.0028,0.02057 -0.0013,0.04679 -0.002,0.07226 -0.0041,0.150084 -0.05301,0.350304 -0.05664,0.246094 -0.04633,0.03967 -0.184677,0.145891 -0.242188,0.150391 -0.0098,7.6e-4 -0.0055,-0.01784 -0.0078,-0.02734 -0.0053,0.007 -6.59e-4,0.0034 -0.0059,0.0059 -0.008,0.01213 -0.01735,0.02231 -0.02344,0.03711 -0.0055,0.0089 -0.01355,0.02339 -0.01758,0.0293 -0.0047,0.0069 -0.01147,0.011 -0.01563,0.01953 -0.0037,0.0024 -0.0033,0.01044 -0.0078,0.01172 0,0 -0.002,0 -0.002,0 -0.0084,0.01545 -0.01349,0.03592 -0.0293,0.03711 -0.08033,0.006 -0.160039,-0.0099 -0.240235,-0.02148 -0.02295,-0.0016 -0.04579,0.0073 -0.06836,0.0039 -0.0027,-4.05e-4 -0.005,-0.01043 -0.0078,-0.01172 -0.02475,-0.0033 -0.04946,-0.0036 -0.07422,-0.0059 -0.0036,-0.03905 -0.0073,-0.07817 -0.01172,-0.117188 -0.02147,-0.05119 -0.0404,-0.107198 -0.04492,-0.130859 0.0085,0.0087 0.02373,0.01348 0.03516,0.02148 -2.1e-5,-0.0013 1.4e-5,-0.0026 0,-0.0039 -1.78e-4,-0.01748 0.0098,-0.03219 0.01563,-0.04883 -0.103463,0.0078 -0.206879,0.01828 -0.310547,0.01758 -0.0079,-5.6e-5 -0.0017,-0.01329 0,-0.02344 4.16e-4,-0.0025 9.3e-5,-0.0039 0,-0.0059 -0.0012,-0.02598 -0.0031,-0.05213 -0.0039,-0.07813 -3.57e-4,-0.01119 3.71e-4,-0.01126 0,-0.02148 -0.165281,-0.05457 -0.317784,-0.134394 -0.462891,-0.230469 -0.138382,-0.01273 -0.27484,-0.03948 -0.412109,-0.06055 -0.045151,-0.0069 -0.091204,-0.01563 -0.1367188,-0.01953 -0.086593,-0.0073 -0.1146131,-0.0042 -0.1894531,0.002 -0.1465092,0.01791 -0.2807338,0.01085 -0.4296875,0 -0.060785,-0.0044 -0.1227177,-0.01468 -0.1835937,-0.01758 -0.038383,-0.0018 -0.079379,-0.001 -0.1191407,-0.002 -6.675e-4,6.25e-4 -0.00132,0.0014 -0.00195,0.002 -0.00192,8.06e-4 -0.00253,0.0015 -0.00391,0.002 -5.233e-4,3.37e-4 -0.00143,-3.41e-4 -0.00195,0 -0.061462,0.150543 -0.1210733,0.30072 -0.1777344,0.453125 -0.023306,0.06269 -0.045353,0.127303 -0.064453,0.191406 0.00206,0.02943 7.472e-4,0.01871 0.00586,0.0625 -0.2024195,0.22303 -0.1462116,0.263213 -0.4882812,-0.0957 -0.021184,-0.02223 0.00355,-0.06046 0.015625,-0.0918 -0.039322,0.01832 -0.075918,0.03617 -0.083984,0.05274 0.019065,0.03784 0.044882,0.06846 0.072266,0.09961 0.063531,0.03605 0.1343182,0.06874 0.1074219,0.09766 -0.022692,0.0244 -0.054677,-0.03899 -0.080078,-0.06055 -0.011933,-0.01013 -0.017099,-0.02546 -0.027344,-0.03711 -0.052968,-0.03006 -0.090466,-0.06222 -0.072266,-0.09961 -0.025662,-0.05094 -0.048146,-0.106131 -0.070313,-0.15625 -0.017503,-0.04398 -0.035116,-0.0877 -0.054688,-0.13086 -0.018743,-0.01301 -0.036805,-0.02481 -0.054688,-0.03906 -0.2365271,0.05302 -0.2114212,-0.0143 -0.1445313,-0.138672 -0.00879,-0.01 -0.020898,-0.01716 -0.029297,-0.02734 -0.035289,-0.04278 0.018914,-0.108039 0.03125,-0.162109 0.00123,-0.0054 0.00268,-0.01027 0.00391,-0.01563 -0.028087,-0.03764 -0.045706,-0.06922 -0.1328125,-0.160156 8.808e-4,-0.0072 8.833e-4,-0.01429 0.00195,-0.02149 -0.065978,-0.07871 -0.086626,-0.149417 0.00586,-0.1875 -2.112e-4,-0.01954 -0.00333,-0.03445 0,-0.0625 0.00335,-0.028254 0.016944,-0.065964 0.023437,-0.1015627 C 7.5176233,10.269624 7.4685284,9.4044525 7.484375,9.6542969 c 1.877e-4,0.018953 0.018223,0.034098 0.023437,0.052734 0.033566,-0.1120919 0.184331,-0.097599 0.3242187,-0.09375 0.00648,-0.032455 0.018212,-0.063434 0.025391,-0.095703 -0.023809,-0.027468 -0.024382,-0.046093 -0.0625,-0.074219 -0.031618,-0.023322 -0.1411085,0.035077 -0.1171875,0.00391 5.706e-4,-7.436e-4 0.012609,-0.00867 0.013672,-0.00977 -0.059646,0.011519 -0.124658,0.023544 -0.1660156,0.029297 -0.023136,0.00322 -0.019389,0.039984 -0.023437,0.066406 -3.212e-4,0.00718 -6.729e-4,0.014422 -0.00195,0.021484 -6.38e-4,0.00352 -0.00298,-0.00634 -0.00195,-0.00977 0.00117,-0.00392 0.0032,-0.00708 0.00391,-0.011719 3.212e-4,-0.00718 0.00144,-0.014325 0.00195,-0.021484 -0.00538,-0.049379 -0.015701,-0.098883 -0.015625,-0.1484376 -0.063172,0.019412 -0.1260801,0.0379 -0.1894531,0.056641 -0.053813,0.015913 -0.1068263,0.037235 -0.1621093,0.046875 -0.031796,0.00554 -0.065891,-0.00767 -0.097656,-0.00195 -0.00948,0.00171 -0.012971,0.014434 -0.019531,0.021484 -0.00837,-0.075788 -0.015236,-0.086543 -0.03125,-0.080078 6.011e-4,0.067591 -0.041171,0.1066248 -0.171875,0.091797 C 6.7514032,9.5236093 6.6667616,9.5470613 6.546883,9.5585913 6.519344,9.5612413 6.526259,9.5073043 6.519539,9.4804663 6.508005,9.4344013 6.500155,9.3866563 6.492195,9.3398413 6.470169,9.2103132 6.45341,9.068844 6.464851,9.16406 6.459451,9.09569 6.457501,9.12885 6.447273,9.074216 6.424925,9.075496 6.402417,9.078246 6.3300855,9.082026 6.2495025,9.065781 6.166814,9.056215 6.087898,9.033198 6.066476,9.026948 6.050872,9.007774 6.03321,8.994136 6.003498,8.971192 5.975516,8.948551 5.947273,8.923823 5.941003,8.918333 5.921835,8.907072 5.929695,8.904292 5.940107,8.900612 5.950933,8.913302 5.960945,8.917964 L 5.8457031,8.8085938 c -0.04842,-0.1040559 -0.072102,-0.1888727 -0.097656,-0.3027344 -0.00513,-0.022856 -0.034554,-0.065083 -0.011719,-0.070313 0.011069,-0.00253 0.020678,0.010123 0.03125,0.013672 -0.034261,-0.017807 -0.082739,-0.045274 -0.099609,-0.048828 -0.021922,-0.00462 -0.044066,-0.00572 -0.066406,-0.00781 -0.019704,0.022222 -0.013395,0.00614 -0.041016,0.048828 -0.011197,0.017306 -0.019497,0.034601 -0.029297,0.052734 -6.9e-4,0.00128 -0.00151,0.00207 -0.00195,0.00391 -0.00178,0.00736 -0.00252,0.018025 -0.00781,0.015625 C 5.3941922,8.4558858 5.2724154,8.3888901 5.1484375,8.3242188 5.1290262,8.314093 5.1093472,8.3048562 5.0898438,8.2949219 5.0835337,8.3425573 5.0471235,8.395414 5.0703125,8.4375 c 0.045363,0.082329 0.1341381,0.1316884 0.2050781,0.1933594 0.005,0.00435 0.024581,-0.00235 0.019531,0.00195 -0.00605,0.00515 -0.015528,0.00121 -0.023437,0.00195 -0.00495,4.671e-4 -0.010885,0.00347 -0.015625,0.00195 C 5.1903946,8.6156737 5.127338,8.5912614 5.0625,8.5683594 4.9916893,8.5056639 4.9610491,8.4157713 4.9238281,8.3320312 c -0.011425,-0.025703 -0.029306,-0.050612 -0.035156,-0.078125 -0.00951,-0.044738 -0.015837,-0.089663 -0.023437,-0.1347656 0.044208,-0.1781172 0.019256,-0.166516 0.265625,-0.2792968 0.0266,-0.012176 0.058911,0.00967 0.087891,0.013672 0.032684,0.0045 0.064946,0.0074 0.097656,0.011719 0.020647,0.00381 0.041716,0.00481 0.0625,0.00781 0.012136,-0.017042 0.02495,-0.034871 0.035156,-0.050781 0.042116,-0.065652 0.2069503,-0.1792252 0.2539063,-0.2070312 0.027212,-0.016115 0.056184,-0.026052 0.085937,-0.037109 0.026772,-0.026395 0.056047,-0.049641 0.091797,-0.072266 0.051417,-0.03254 0.1110756,-0.053922 0.1660157,-0.080078 0.084708,-0.03609 0.1681736,-0.073837 0.2539062,-0.1074218 0.050578,-0.019813 0.1030003,-0.034864 0.1542969,-0.052734 0.077649,-0.027051 0.1554413,-0.05313 0.2324219,-0.082031 0.2542638,-0.095458 0.5053452,-0.2021851 0.7675781,-0.2753907 0.5524645,-0.1386081 0.3076879,-0.097265 0.7734375,-0.15625 0.036371,-0.00461 0.073009,-0.00902 0.109375,-0.013672 0.012166,-0.06921 0.028413,-0.1443177 0.070313,-0.1171874 0.056314,0.036464 0.08226,0.062914 0.1230469,0.09375 0.016879,-0.00204 0.033894,-0.00389 0.050781,-0.00586 0.00895,-0.00104 0.032084,-0.00961 0.027344,-0.00195 0,0 0.00195,-0.00195 0.00195,-0.00195 0.065032,0.028791 0.1285023,0.060242 0.1953125,0.085937 -0.00493,-0.021325 -0.017187,-0.053087 -0.00977,-0.041016 0.008,0.013019 0.00997,0.027952 0.013672,0.042969 0.064003,0.024778 0.1320295,0.042286 0.1875,0.082031 0.028056,0.020111 0.00117,0.069375 -0.00391,0.1035156 -0.010726,0.0721 -0.050612,0.1836259 -0.076172,0.2519532 0.036979,-0.046145 0.068179,-0.096743 0.1054687,-0.1425782 0.029431,-0.036175 0.062091,-0.067319 0.09375,-0.1015625 0.048224,-0.046726 0.091326,-0.09966 0.1445313,-0.140625 0.032296,-0.024866 0.070469,-0.066842 0.109375,-0.054688 0.1219993,0.038114 0.1792041,0.074579 0.234375,0.1152344 0.09613,-0.00744 0.1923526,-0.011701 0.2871094,-0.027344 0.08527,0.023041 0.1462535,-0.043641 0.2207035,-0.058594 0.02561,-0.00514 0.05217,-0.00663 0.07813,-0.00977 0.01771,-0.054978 0.03369,-0.1108565 0.05078,-0.1660157 0.04327,-0.1396464 0.09003,-0.2770364 0.128907,-0.4179687 0.002,-0.00747 0.0022,-0.013365 0,-0.023437 -0.0074,-0.015483 -0.01686,-0.03038 -0.02149,-0.046875 -0.0066,-0.023668 0.02682,-0.092471 0.03906,-0.1289062 0.13543,0.041281 0.274492,0.072213 0.40625,0.1230468 -0.04425,-0.049828 -0.09838,-0.095121 -0.09961,-0.1582031 z M 7.7519531,9.9179688 c 0.010241,-0.056147 0.019729,-0.108464 0.037109,-0.1601563 -0.098868,0.017294 -0.2018782,0.031534 -0.2519531,0.00977 0.048266,0.082184 0.1220379,0.1514659 0.2148437,0.1503907 z m -0.023437,0.1640622 c 4.752e-4,0.04396 0.00251,0.08208 0,0.140625 -6.829e-4,0.01589 -0.00352,0.03112 -0.00586,0.04688 0.039271,0.04685 0.088011,0.09321 0.1425782,0.136719 0.00309,-0.01325 0.00665,-0.02591 0.00977,-0.03906 -0.00392,-0.02245 -0.010112,-0.04396 -0.013672,-0.06641 -0.014093,-0.01699 -0.014769,-0.02904 -0.013672,-0.04101 -0.022003,-0.0194 -0.046968,-0.03583 -0.0625,-0.06055 -0.022887,-0.03643 -0.012593,-0.08527 -0.00977,-0.128907 -0.016049,0.0037 -0.034871,0.0068 -0.046875,0.01172 z m 0.1191406,0.177735 c 0.00279,0.0025 0.00497,0.0054 0.00781,0.0078 -0.00166,-0.0098 -0.00401,-0.01966 -0.00586,-0.0293 -0.00937,0.0036 -0.00128,0.01418 -0.00195,0.02149 z m 0.00781,0.0078 c 0.00188,0.01104 0.00409,0.02204 0.00586,0.0332 0.00709,0.0085 0.014443,0.01676 0.023437,0.02539 0.00203,-0.0085 0.00383,-0.01697 0.00586,-0.02539 -0.012907,-0.01024 -0.022694,-0.02262 -0.035156,-0.0332 z m 1.046875,-3.2128905 c -0.023982,0.010551 -0.046004,0.025287 -0.068359,0.039062 6.885e-4,0.00522 0.00138,0.010394 0.00195,0.015625 0.00129,6.73e-4 0.00262,0.00128 0.00391,0.00195 0.020811,-0.018772 0.088153,-0.067927 0.0625,-0.056641 z M 8.1777344,7.2480469 c -0.06964,0.0085 -0.1181924,0.02663 -0.15625,0.03125 0.026107,0.020031 0.082586,0.06746 0.1074218,0.087891 0.014749,-0.040326 0.036037,-0.078048 0.048828,-0.119141 z m 1.8320316,0.085937 c -0.09034,0.019028 -0.1594589,0.035259 -0.2929691,0.048828 -0.045031,0.00458 -0.022565,1.8e-4 -0.048828,0.00391 0.00176,0.028142 0.00708,0.058108 0.00586,0.085937 0.00988,0.00195 0.015033,-0.00246 0.025391,0 0.018751,0.00446 0.025654,0.027718 0.042969,0.039063 0.082303,-0.055018 0.1646872,-0.1100026 0.25,-0.1601563 0.00465,-0.00273 0.010606,-0.00201 0.015624,-0.00391 0.0011,-0.00443 8e-4,-0.0092 0.002,-0.013672 z m -2.5644535,0.076172 c -0.03371,0.012831 -0.067555,0.025274 -0.1015625,0.037109 0.0231,0.01813 0.037196,0.037471 0.078125,0.099609 0.00649,0.032415 0.014068,0.069502 0.017578,0.097656 0.01395,0.021495 0.021644,0.046943 0.027344,0.072266 0.00826,0.036693 0.0091,0.075951 0.013672,0.1132812 -0.00502,0.054971 -0.00636,0.1096445 -0.015625,0.1640625 -0.00661,0.038829 -0.020511,0.075385 -0.03125,0.1132813 C 7.416068,8.1692669 7.398345,8.2311096 7.38086,8.2929678 7.3408917,8.434363 7.314069,8.5451165 7.25,8.6835938 7.228747,8.7295295 7.1968109,8.769619 7.1699219,8.8125 7.105743,8.8693076 7.0469135,8.9334649 6.9765625,8.9824219 c -0.013444,0.00936 -0.031064,0.010829 -0.046875,0.015625 0.00146,0.00828 0.00242,0.017087 0.00391,0.025391 0.063381,-0.022319 0.1246734,-0.036767 0.2304687,-0.068359 0.096544,-0.02883 0.1947326,-0.058199 0.2910156,-0.087891 0.044043,-0.013582 0.086879,-0.029176 0.1308594,-0.042969 0.01134,-0.038168 0.020546,-0.072887 0.033203,-0.1132813 C 7.678716,8.5208059 7.738334,8.3309793 7.8085938,8.1445312 7.8480838,8.0397368 7.8916566,7.936369 7.9375,7.8339844 7.8050157,7.7186438 7.7464642,7.6648285 7.5214844,7.4960938 7.4846007,7.468431 7.4702625,7.4389467 7.4453125,7.4101559 Z m -1.4648437,0.140625 c -0.056317,-0.00837 -0.1241392,0.00826 -0.1757813,0.033203 0.094703,0.067079 0.1964336,0.1290633 0.28125,0.2050781 0.00737,-0.069296 0.0072,-0.1366378 -0.027344,-0.1933594 -0.01548,-0.025418 -0.043041,-0.039707 -0.078125,-0.044922 z M 6.6835938,7.6875 C 6.6502558,7.699314 6.6173698,7.710984 6.5839848,7.722656 6.5296788,7.741643 6.4734903,7.756365 6.4199223,7.777344 6.3464953,7.8061 6.2754734,7.839724 6.2031254,7.871094 c -0.020003,0.00958 -0.040298,0.020185 -0.060547,0.029297 -0.020648,0.03053 -0.064304,0.080882 -0.140625,0.1230469 0.1721421,0.051418 0.1885468,0.2544177 0.2207031,0.3925781 0.00834,0.035843 0.019249,0.070069 0.029297,0.1054688 0.00979,0.034553 0.012579,0.028746 0.013672,0.035156 0.00677,0.00601 -1.204e-4,-0.00123 0.00781,0.00586 0.078834,0.070498 -0.00335,0.011783 0.056641,0.048828 0.010348,0.00639 0.01811,0.024301 0.029297,0.019531 0.010242,-0.00437 0.00166,-0.022068 0.00195,-0.033203 0.023778,-0.00416 0.048111,-0.00415 0.072266,-0.00586 C 6.4452564,8.4303197 6.4690698,8.2706445 6.515625,8.1152344 6.5464165,8.0205836 6.6031367,7.822877 6.6835938,7.6875 Z m 0.2871093,0.03125 c 1.66e-5,0.00131 -6.44e-5,0.00261 0,0.00391 0.00581,0.062249 0.063843,0.082544 0.1035157,0.1171876 C 7.03786,7.8009669 6.9990453,7.7624085 6.9707031,7.71875 Z m -1.328125,0.074219 c 0.013257,0.092629 0.00921,0.063808 0.019531,0.1230468 0.029589,0.00445 0.05867,0.013205 0.087891,0.019531 -0.029242,-0.044361 -0.054728,-0.087515 -0.064453,-0.125 -0.018662,-0.00512 -0.020595,-0.012936 -0.042969,-0.017578 z m 1.4472657,0.072266 c -0.01223,8.55e-4 -0.039733,-0.00793 -0.041016,0.00586 -0.00205,0.022037 0.048586,0.022792 0.048828,0.044922 2.177e-4,0.019911 -0.014681,0.036003 -0.027344,0.052734 0.063619,0.1028671 0.1295419,0.1793932 0.083984,-0.00195 -0.00999,-0.039778 -0.037477,-0.07006 -0.064453,-0.1015625 z M 6.0722656,7.935548 c -0.00559,0.00298 -0.012082,0.00465 -0.017578,0.00781 -0.00458,0.00263 0.01556,0.00919 0.015625,0.00391 4.73e-5,-0.00382 0.00181,-0.00786 0.00195,-0.011719 z M 11.40625,8.9863281 c -0.0082,0.018522 -0.01782,0.036796 -0.02148,0.056641 -0.0031,0.016834 0.01568,0.1816388 0.01758,0.2011718 0.0047,0.047474 0.0057,0.092015 0.0098,0.1367188 0.01302,-0.021295 0.03765,-0.024234 0.07031,-0.017578 4.79e-4,-0.0389 0.0013,-0.072878 0.002,-0.1601562 2.14e-4,-0.028073 0.0046,-0.056026 0.002,-0.083984 -7.3e-4,-0.00753 -0.008,-0.028824 -0.0098,-0.021484 -0.0026,0.010854 0.0036,0.022273 0.0059,0.033203 -0.02529,-0.048422 -0.05089,-0.09611 -0.07617,-0.1445313 z m -0.496094,0.1523438 c -0.08049,0.1407665 -0.157413,0.2837877 -0.238281,0.4238281 -0.03827,0.066262 -0.07452,0.1321386 -0.111328,0.1992188 -0.0061,0.011206 -0.01231,0.023438 -0.01758,0.035156 0.0058,-0.00333 0.0119,-0.00616 0.01758,-0.00977 0.101422,-0.064367 0.170533,-0.1273667 0.248047,-0.1914063 0.0014,-0.00344 -0.0023,-0.00857 0,-0.011719 0.0368,-0.051264 0.07794,-0.1064934 0.123047,-0.1523438 -0.0048,-0.049291 -0.0076,-0.098341 -0.01172,-0.1484375 -0.004,-0.048035 -0.0096,-0.096394 -0.0098,-0.1445312 z m 0.519532,0.5390625 c -0.0041,0.095093 -0.0081,0.1898379 -0.0078,0.2851562 9.8e-5,0.038511 0.0045,0.076804 0.002,0.1152344 -0.0029,0.04436 -0.01198,0.08676 -0.01758,0.130859 0.0018,0.01833 0.0043,0.03633 0.0059,0.05469 0.02449,-0.08011 0.05169,-0.164972 0.07617,-0.240234 -0.0017,-0.076766 1.86e-4,-0.1536899 -0.002,-0.2304692 -0.03233,-0.027928 -0.05168,-0.066723 -0.05664,-0.1152344 z M 9.7675781,10.03125 c -0.024116,0.0014 -0.048246,0.004 -0.072266,0.0039 -0.00549,0.0087 -0.011775,0.01689 -0.017578,0.02539 -0.00128,0.0068 -4.418e-4,0.01486 -0.00195,0.02148 0.064684,-0.0035 0.1097826,2.59e-4 0.1503907,0 4.951e-4,-0.0026 0.00147,-0.0052 0.00195,-0.0078 -0.024851,-0.01073 -0.020291,-0.003 -0.048828,-0.01563 -0.00962,-0.0043 -0.00763,-0.01873 -0.011719,-0.02734 z m 1.1425779,0.101562 c -0.0067,0.0047 -0.01477,0.0071 -0.02148,0.01172 0.0084,0.0039 0.01792,0.0059 0.02734,0.0098 -0.0013,-0.0073 -0.0044,-0.01421 -0.0059,-0.02149 z m -2.4609372,0.404297 c 5.996e-4,0.0013 0.00135,0.0026 0.00195,0.0039 4.997e-4,-0.0012 -5.013e-4,-0.0027 0,-0.0039 0,0 -0.00195,0 -0.00195,0 z m 3.5683592,0.230469 c -0.003,0.01297 -0.0037,0.02605 -0.0059,0.03906 0,0 0.002,-0.002 0.002,-0.002 -0.0033,-0.01111 0.0086,-0.0239 0.0059,-0.03516 0,0 -0.002,-0.002 -0.002,-0.002 z" />
    </clipPath>
    <clipPath
       clipPathUnits="userSpaceOnUse"
       id="clipPath722">
      <path
         id="path724"
         style="fill:#ff0000;fill-opacity:1;fill-rule:nonzero;stroke:none"
         d="m 7.9003906,5.3945312 v 1.3984376 c 0.056276,-0.00993 0.09993,-0.016568 0.2929688,-0.041016 0.036371,-0.00461 0.073009,-0.00902 0.109375,-0.013672 0.012166,-0.06921 0.028413,-0.1443177 0.070313,-0.1171874 0.056314,0.036464 0.08226,0.062914 0.1230469,0.09375 0.016879,-0.00204 0.033894,-0.00389 0.050781,-0.00586 0.00895,-0.00104 0.032084,-0.00961 0.027344,-0.00195 0,0 0.00195,-0.00195 0.00195,-0.00195 0.065032,0.028791 0.1285023,0.060242 0.1953125,0.085937 -0.00493,-0.021325 -0.017187,-0.053087 -0.00977,-0.041016 0.008,0.013019 0.00997,0.027952 0.013672,0.042969 0.064003,0.024778 0.1320295,0.042286 0.1875,0.082031 0.028056,0.020111 0.00117,0.069375 -0.00391,0.1035156 -0.010726,0.0721 -0.050612,0.1836259 -0.076172,0.2519532 0.036979,-0.046145 0.068179,-0.096743 0.1054687,-0.1425782 0.029431,-0.036175 0.062091,-0.067319 0.09375,-0.1015625 0.048224,-0.046726 0.091326,-0.09966 0.1445313,-0.140625 0.032296,-0.024866 0.070469,-0.066842 0.109375,-0.054688 0.1219993,0.038114 0.1792041,0.074579 0.234375,0.1152344 0.09613,-0.00744 0.1923526,-0.011701 0.2871094,-0.027344 0.08527,0.023041 0.1462528,-0.043641 0.2207028,-0.058594 0.02561,-0.00514 0.05217,-0.00663 0.07813,-0.00977 0.01771,-0.054978 0.03369,-0.1108565 0.05078,-0.1660157 0.04327,-0.1396464 0.09003,-0.2770364 0.128907,-0.4179687 0.002,-0.00747 0.0022,-0.013365 0,-0.023437 -0.0074,-0.015483 -0.01686,-0.03038 -0.02149,-0.046875 -0.0066,-0.023668 0.02682,-0.092471 0.03906,-0.1289062 0.13543,0.041281 0.274492,0.072213 0.40625,0.1230468 -0.04425,-0.049828 -0.09838,-0.095121 -0.09961,-0.1582031 -0.0013,-0.064136 0.09824,0.082033 0.134766,0.1347656 0.008,0.011489 0.01036,0.026151 0.01563,0.039062 0.0043,0.00194 0.0094,0.00189 0.01367,0.00391 0.0082,0.00385 -0.0018,0.017941 -0.002,0.027344 0.0069,0.022189 0.01717,0.04296 0.02539,0.064453 0.01781,0.07989 0.04563,0.1586933 0.05274,0.2402343 0.01216,0.1387387 0.01556,0.2788902 0.0078,0.4179688 0.0105,0.00221 0.02168,0.00499 0.03125,0.00781 0.08717,-0.06248 0.174523,-0.1272901 0.277344,-0.1484375 0.0029,-5.869e-4 0.005,0.00571 0.0078,0.00586 0.122088,-0.042443 0.276684,0.035847 0.330079,0.2851563 0.01515,0.070707 0.04068,0.1408416 0.04687,0.2128906 0.02769,0.3238696 0.0065,0.6800709 -0.04101,1.0234375 0.07104,0.1112011 0.142396,0.2219351 0.205078,0.3378906 0.03856,-0.1747621 0.07222,-0.3130041 0.0918,-0.4042968 -0.0021,-0.044973 -0.0075,-0.056626 -0.002,-0.171875 0.01197,-0.247401 0.02169,-0.2681443 0.05859,-0.4707032 0.02661,-0.046511 0.02736,-0.1482818 0.08008,-0.1386718 0.04845,0.00884 0.09205,0.033932 0.136718,0.054688 V 5.3945312 Z m 1.0019532,1.6601563 c -0.023982,0.010551 -0.046004,0.025287 -0.068359,0.039062 6.885e-4,0.00522 0.00138,0.010394 0.00195,0.015625 0.00129,6.73e-4 0.00262,0.00128 0.00391,0.00195 0.020811,-0.018772 0.088153,-0.067927 0.0625,-0.056641 z M 8.1777344,7.2480469 c -0.06964,0.0085 -0.1181924,0.02663 -0.15625,0.03125 0.02855,0.021308 0.079334,0.065759 0.1074218,0.087891 0.014749,-0.040326 0.036037,-0.078048 0.048828,-0.119141 z m 1.8320316,0.085937 c -0.09034,0.019028 -0.1594589,0.035259 -0.2929691,0.048828 -0.045031,0.00458 -0.022565,1.8e-4 -0.048828,0.00391 0.00176,0.028142 0.00708,0.058108 0.00586,0.085937 0.00988,0.00195 0.015033,-0.00246 0.025391,0 0.018751,0.00446 0.025654,0.027718 0.042969,0.039063 0.082303,-0.055018 0.1646872,-0.1100026 0.25,-0.1601563 0.00465,-0.00273 0.010606,-0.00201 0.015624,-0.00391 0.0011,-0.00443 8e-4,-0.0092 0.002,-0.013672 z m -2.1093754,0.46875 V 7.921875 C 7.9133866,7.89218 7.9242436,7.86163 7.9374996,7.832031 7.9283896,7.824891 7.9105126,7.811424 7.9003906,7.8027339 Z M 11.40625,8.9863281 c -0.0082,0.018522 -0.01782,0.036796 -0.02148,0.056641 -0.0031,0.016834 0.01568,0.1816388 0.01758,0.2011718 0.0047,0.047474 0.0057,0.092015 0.0098,0.1367188 0.01302,-0.021295 0.03765,-0.024234 0.07031,-0.017578 4.79e-4,-0.0389 0.0013,-0.072878 0.002,-0.1601562 2.14e-4,-0.028073 0.0046,-0.056026 0.002,-0.083984 -7.3e-4,-0.00753 -0.008,-0.028824 -0.0098,-0.021484 -0.0026,0.010854 0.0036,0.022273 0.0059,0.033203 -0.02529,-0.048422 -0.05089,-0.09611 -0.07617,-0.1445313 z m -0.496094,0.1523438 c -0.08049,0.1407665 -0.157413,0.2837877 -0.238281,0.4238281 -0.03827,0.066262 -0.07452,0.1321386 -0.111328,0.1992188 -0.0061,0.011206 -0.01231,0.023438 -0.01758,0.035156 0.0058,-0.00333 0.0119,-0.00616 0.01758,-0.00977 0.101422,-0.064367 0.170533,-0.1273667 0.248047,-0.1914063 0.0014,-0.00344 -0.0023,-0.00857 0,-0.011719 0.0368,-0.051264 0.07794,-0.1064934 0.123047,-0.1523438 -0.0048,-0.049291 -0.0076,-0.098341 -0.01172,-0.1484375 -0.004,-0.048035 -0.0096,-0.096394 -0.0098,-0.1445312 z m 1.220703,0.4121093 c -0.01889,0.071749 -0.04563,0.1893278 -0.05273,0.2167969 -0.03844,0.1153667 -0.07126,0.2262016 -0.107422,0.3359379 0.0018,0.115145 0.0081,0.230615 0.002,0.345703 0.0042,0.0027 0.0075,0.0029 0.01172,0.0059 0.0337,0.02339 0.06711,0.06066 0.07031,0.101563 0.0042,0.05413 -0.01386,0.106835 -0.02734,0.160156 0.0028,0.02057 -0.0013,0.04679 -0.002,0.07226 -0.0015,0.05603 -0.01215,0.04024 -0.02149,0.0918 h 0.126953 z m -0.701171,0.1269532 c -0.0041,0.095093 -0.0081,0.1898379 -0.0078,0.2851562 9.8e-5,0.038511 0.0045,0.076804 0.002,0.1152344 -0.0029,0.04436 -0.01198,0.08676 -0.01758,0.130859 0.0018,0.01833 0.0043,0.03633 0.0059,0.05469 0.02449,-0.08011 0.05169,-0.164972 0.07617,-0.240234 -0.0017,-0.076766 1.86e-4,-0.1536899 -0.002,-0.2304692 -0.03233,-0.027928 -0.05168,-0.066723 -0.05664,-0.1152344 z M 9.7675781,10.03125 c -0.024116,0.0014 -0.048246,0.004 -0.072266,0.0039 -0.00549,0.0087 -0.011775,0.01689 -0.017578,0.02539 -0.00128,0.0068 -4.418e-4,0.01486 -0.00195,0.02148 0.064684,-0.0035 0.1097826,2.59e-4 0.1503907,0 4.951e-4,-0.0026 0.00147,-0.0052 0.00195,-0.0078 -0.024851,-0.01073 -0.020291,-0.003 -0.048828,-0.01563 -0.00962,-0.0043 -0.00763,-0.01873 -0.011719,-0.02734 z m 1.1425779,0.101562 c -0.0067,0.0047 -0.01477,0.0071 -0.02148,0.01172 0.0084,0.0039 0.01792,0.0059 0.02734,0.0098 -0.0013,-0.0073 -0.0044,-0.01421 -0.0059,-0.02149 z m -2.4609372,0.404297 c 5.996e-4,0.0013 0.00135,0.0026 0.00195,0.0039 4.997e-4,-0.0012 -5.013e-4,-0.0027 0,-0.0039 0,0 -0.00195,0 -0.00195,0 z m 0.5234374,0.0078 c -6.675e-4,6.25e-4 -0.00132,0.0014 -0.00195,0.002 -0.00192,8.06e-4 -0.00253,0.0015 -0.00391,0.002 -5.233e-4,3.37e-4 -0.00143,-3.41e-4 -0.00195,0 -0.045065,0.110382 -0.08813,0.221057 -0.1308594,0.332031 H 10.90625 c 5.1e-5,-0.0021 1.35e-4,-0.0041 0,-0.0078 -0.165281,-0.05457 -0.317784,-0.134394 -0.462891,-0.230469 -0.138382,-0.01273 -0.27484,-0.03948 -0.412109,-0.06055 -0.045151,-0.0069 -0.091204,-0.01563 -0.1367188,-0.01953 -0.086593,-0.0073 -0.1146131,-0.0042 -0.1894531,0.002 -0.1465092,0.01791 -0.2807338,0.01085 -0.4296875,0 -0.060785,-0.0044 -0.1227177,-0.01468 -0.1835937,-0.01758 -0.038383,-0.0018 -0.079379,-10e-4 -0.1191407,-0.002 z m 3.0449218,0.222656 c -0.003,0.01297 -0.0037,0.02605 -0.0059,0.03906 0,0 0.002,-0.002 0.002,-0.002 -0.0033,-0.01111 0.0086,-0.0239 0.0059,-0.03516 0,0 -0.002,-0.002 -0.002,-0.002 z m -4.1171874,0.02734 v 0.08594 h 0.1660156 c -0.00659,-0.01558 -0.012524,-0.03142 -0.019531,-0.04688 -0.018743,-0.01301 -0.036805,-0.02481 -0.054688,-0.03906 -0.058503,0.01311 -0.061979,6.52e-4 -0.091797,0 z" />
    </clipPath>
  </defs>
  <sodipodi:namedview
     pagecolor="#ffff39"
     bordercolor="#666666"
     borderopacity="1"
     objecttolerance="10"
     gridtolerance="10"
     guidetolerance="10"
     inkscape:pageopacity="0.55686275"
     inkscape:pageshadow="2"
     inkscape:window-width="1280"
     inkscape:window-height="738"
     id="namedview589"
     showgrid="false"
     inkscape:snap-bbox="true"
     inkscape:zoom="16.5"
     inkscape:cx="8"
     inkscape:cy="11.428397"
     inkscape:window-x="-8"
     inkscape:window-y="-8"
     inkscape:window-maximized="1"
     inkscape:current-layer="svg587"
     inkscape:pagecheckerboard="true" />
  <g
     fill="#e0e0e0"
     id="g585"
     transform="matrix(1.4201791,0,0,1.3667297,-1.3630732,-1.6888061)"
     style="fill:#f9f9f9">
    <path
       id="path581"
       style="fill-rule:evenodd;fill:#f9f9f9"
       d="M 6,2 C 5.6961373,1.9998247 5.4086755,2.1378063 5.21875,2.375 l -4,5 c -0.29139692,0.3649711 -0.29139692,0.8830758 0,1.2480469 l 4,5.0000001 C 5.408288,13.860971 5.6958084,13.999702 6,14 h 8 c 0.552262,-5.5e-5 0.999945,-0.447738 1,-1 V 3 C 14.999945,2.4477381 14.552262,2.0000552 14,2 Z M 6.4804688,4 H 13 v 8 H 6.4804688 L 3.28125,8 Z m 0.484375,2.0976562 c 4.486e-4,-0.00217 -0.018392,0.00192 -0.023438,0.00195 0.00779,-9.205e-4 0.015642,7.086e-4 0.023438,0 z m -0.109375,0.5351563 c 0.00543,0.0077 0.012195,0.014772 0.015625,0.023437 0.00914,0.023104 0.00484,7.38e-4 0.013672,0.037109 0.013458,-0.011686 0.01945,-0.033104 0.037109,-0.039062 C 6.948601,6.6452769 6.97309,6.6645506 7,6.6660156 V 6.6367188 C 6.951808,6.6348388 6.903664,6.6329825 6.8554688,6.6328125 Z M 6.0527344,7.96875 c -0.060475,0.021976 -0.1185995,0.045257 -0.1738282,0.066406 -5.46e-5,0.010417 7.9e-5,0.020834 0,0.03125 0.00632,0.016346 0.013183,0.032492 0.019531,0.048828 0.033664,0.00878 0.066342,0.013055 0.1035156,0.037109 0.00763,-0.03376 0.014122,-0.067711 0.021484,-0.1015626 0.00961,-0.02741 0.019981,-0.054521 0.029298,-0.08203 z M 5.90625,8.1347656 c 0.016261,0.011999 0.045261,0.032336 0.046875,0.033203 0.0144,0.00773 -0.023406,-0.021839 -0.035156,-0.033203 -0.00389,8.15e-5 -0.00783,-8.14e-5 -0.011719,0 z M 7,8.1816406 c -0.015799,0.074019 -0.03601,0.1469173 -0.052734,0.2207032 0.012629,0.0065 0.032344,0.016184 0.039062,0.027344 0.00141,-2.912e-4 0.00265,-2.53e-4 0.00391,0 C 6.9941553,8.3991437 6.9935104,8.3683056 7,8.3378906 Z M 5.3867188,8.234375 c -0.033687,0.013964 -0.049316,0.016915 -0.09375,0.03125 0.00435,0.013765 0.00934,0.027196 0.013672,0.041016 l 0.035156,0.035156 c 0.037185,0.028279 0.095795,0.048396 0.1386719,0.042969 -0.025108,0.00489 -0.038175,7.266e-4 -0.056641,0.00195 0.00329,0.00147 0.006,0.00591 0.00977,0.00586 C 5.4948987,8.3917418 5.541973,8.391166 5.5820351,8.382806 5.5812917,8.35479 5.5802951,8.326843 5.5800851,8.298822 Z M 5.3710938,8.3710938 5.5878906,8.5878906 C 5.5852521,8.5586804 5.5876918,8.5292724 5.5859375,8.5 5.5626495,8.49131 5.5393591,8.4824781 5.5175781,8.4707031 c -0.024246,-0.013108 -0.041656,-0.036653 -0.0625,-0.054688 0.020451,0.00804 -0.00974,-0.01126 -0.037109,-0.029297 -0.013815,6.254e-4 -0.033896,-0.014287 -0.046875,-0.015624 z m 1.6113281,0.5019531 c -0.010337,0.00987 -0.020271,0.020201 -0.03125,0.029297 0.00153,0.073199 0.00248,0.091798 0.00391,0.1621093 0.027474,-0.057179 0.043581,-0.1110132 0.027344,-0.1914062 z"
       clip-path="url(#clipPath712)" />
    <path
       id="path583"
       style="stroke-width:0.204755;fill:#f9f9f9"
       d="m 9.7363281,5.3945312 c -0.00598,7.256e-4 -0.022534,0.00122 -0.029297,0.00195 -0.022869,0.012621 -0.045401,0.026612 -0.068359,0.039062 0.032572,-0.013725 0.065282,-0.026843 0.097656,-0.041016 z M 8.2558594,5.6113281 c -0.00992,-0.028507 -0.00131,0.061622 -0.00195,0.091797 0.00999,0.019638 0.019221,0.038996 0.029297,0.058594 -0.00784,-0.050472 -0.010609,-0.1022838 -0.027344,-0.1503907 z m 0.023437,0.09375 c -9.577e-4,-0.00362 5.077e-4,0.00801 0,0.011719 3.678e-4,0.017236 0.0056,0.033091 0.00781,0.048828 0.0016,0.00314 0.00235,0.00661 0.00391,0.00977 0.00518,0.00207 8.58e-4,7.55e-5 0.00586,0.00195 v -0.00195 c -0.00464,-0.023718 -0.011412,-0.047055 -0.017578,-0.070313 z m -0.087891,0.025391 c -0.00224,0.010522 -0.00555,0.020732 -0.00781,0.03125 0.018959,0.011118 0.034124,0.028599 0.054687,0.035156 0.00605,0.00193 0.00951,-0.00103 0.015625,0 -0.020338,-0.02278 -0.042831,-0.042793 -0.0625,-0.066406 z m 1.0566407,0.4042968 c -0.00846,0.00522 -0.016945,0.010381 -0.025391,0.015625 0.00195,2.18e-5 0.00391,-1.33e-5 0.00586,0 0.00754,-0.0058 0.011704,-0.00969 0.019531,-0.015625 z M 8.1210938,6.6445312 c -1.912e-4,0.046242 -5.68e-5,0.092436 0,0.1386719 0.00934,-0.014356 0.019757,-0.03975 0.029297,-0.052734 -0.021236,-0.010062 -0.012137,-0.050838 -0.00586,-0.085938 -0.0078,1.817e-4 -0.015634,-3.107e-4 -0.023437,1e-7 z m 1.3613281,0.5410157 c 0.00268,0.027268 0.00365,0.054707 0.00586,0.082031 0.015047,-0.00765 0.029894,-0.015642 0.044922,-0.023437 0.042632,-0.019113 0.094153,-0.039262 0.1445313,-0.058594 z m 0.5664061,0 c 0.04803,0.029047 0.08043,0.056493 0.105469,0.076172 0.02709,-0.019386 0.05791,-0.033229 0.08398,-0.052734 0.01399,-0.00968 0.02921,-0.014195 0.04297,-0.023437 z m 1.410156,0 c -0.0098,0.03601 -0.02557,0.070668 -0.02734,0.1074219 -0.0034,0.00571 -0.0052,0.01441 -0.0078,0.021484 0.01695,-0.00185 0.0338,-0.00446 0.05078,-0.00586 0.0096,-0.028322 0.01329,-0.044226 0.02539,-0.080078 0.004,-0.014284 0.0076,-0.028714 0.01172,-0.042969 z M 9.8964844,7.1875 c -0.021927,0.00793 -0.041886,0.020246 -0.0625,0.03125 0.029811,-0.00849 0.059855,-0.015567 0.089844,-0.023437 -0.01006,-7.309e-4 -0.019378,-0.010696 -0.027344,-0.00781 z m 0.1445316,0.041016 c 0.007,0.00554 0.0142,0.010614 0.02148,0.015625 0.0054,0.00373 -0.0088,-0.00928 -0.01367,-0.013672 -0.0011,-4.332e-4 -0.0064,-0.00132 -0.0078,-0.00195 z m -1.2773441,0.21875 c -0.0085,0.00849 -0.016711,0.017147 -0.025391,0.025391 -0.0013,0.019136 0.00698,-0.00139 -0.011719,0.089844 -0.00717,0.034993 -0.020357,0.06698 -0.029297,0.1015625 -0.00838,0.032409 -0.015957,0.065023 -0.023437,0.097656 0.046214,6.015e-4 0.092483,0.00146 0.1386719,0.00195 C 8.8039787,7.6863083 8.7913285,7.6082836 8.78125,7.53125 8.7764386,7.5085243 8.7703384,7.4767361 8.7636719,7.447266 Z m 1.09375,0.085937 c 0.00182,0.00391 0.01649,0.050784 0.025391,0.091797 0.00639,0.00427 0.013048,0.00761 0.019531,0.011719 0.00989,-0.00365 0.0026,0.00132 0.011719,-0.00195 -0.01412,-0.026465 -0.0577,-0.103838 -0.056641,-0.101566 z m -0.037109,0.1132813 c -0.00745,0.0021 -0.014379,0.00483 -0.021484,0.00781 -0.021277,0.00894 -0.041748,0.019201 -0.0625,0.029297 -0.015619,0.00829 -0.033781,0.013506 -0.046875,0.025391 -0.016702,0.015159 -0.03268,0.031116 -0.048828,0.046875 0.0534,-0.0035 0.106865,-0.010115 0.1601562,-0.013672 0.058986,-0.00393 0.1133479,-0.0032 0.1699219,-0.00586 -0.013457,-0.023555 -0.02301,-0.040784 -0.037109,-0.066406 -0.03747,0.00751 -0.076032,-0.00418 -0.1132813,-0.023437 z m 1.4980461,0.2050781 c -0.01372,0.00716 -0.02745,0.014276 -0.04101,0.021484 0.0051,0.075606 0.01407,0.146984 0.02148,0.21875 0.0063,-0.00359 0.01313,-0.0063 0.01953,-0.00977 0.004,-0.031245 0.0099,-0.062155 0.0098,-0.09375 -5.28e-4,-0.1258696 -0.01015,-0.1112091 -0.0098,-0.1367187 z M 10.416016,8.220703 c -0.05054,-0.011439 -0.138896,9.522e-4 -0.22461,0.00195 -0.06763,0.042455 -0.135408,0.084675 -0.2031244,0.1269532 h 0.6874994 c 0.0017,-0.016305 0.0042,-0.032509 0.0059,-0.048828 -0.04384,-0.00681 -0.07792,0.00313 -0.128907,-0.019531 -0.04545,-0.020202 -0.08821,-0.049565 -0.136718,-0.060547 z M 8.4726566,8.24414 c -0.067506,0.01712 -0.1392212,0.038749 -0.2089843,0.054688 -6.555e-4,0.020838 0.0022,0.041753 0.00195,0.0625 0.061474,-0.01722 0.1414414,-0.046065 0.234375,-0.078125 0.00577,-0.013065 0.011121,-0.026344 0.017578,-0.039062 -0.014968,-2.869e-4 -0.029955,3.238e-4 -0.044922,0 z M 8.5,8.2832031 c -0.00259,0.00587 -0.00528,0.011679 -0.00781,0.017578 0.023114,-0.00619 0.017565,-0.00616 0.046875,-0.013672 0.0022,-0.00658 0.00393,-0.013565 0.00977,-0.019531 -0.019292,0.00726 -0.029543,0.00897 -0.048828,0.015625 z m 0.048828,-0.015625 c 0.026263,-0.00988 0.041744,-0.011138 0.066406,-0.021484 -0.011065,-1.441e-4 -0.022139,1.447e-4 -0.033203,0 -0.011257,0.00654 -0.023875,0.011945 -0.033203,0.021484 z m -0.00977,0.019531 c -0.00247,0.00738 -0.015524,0.013612 -0.011719,0.021484 0.00291,0.00603 0.00492,0.0059 0.00781,0.011719 0.027015,-0.012985 0.061831,-0.010159 0.095703,-0.00195 0.00804,-0.01306 0.025273,-0.019937 0.021484,-0.041016 -0.00216,-0.012036 -0.014526,-0.00949 -0.019531,-0.017578 -0.085976,0.020616 -0.035131,0.012322 -0.09375,0.027344 z m 0.09375,-0.027344 c 0.014175,-0.0034 6.524e-4,-3.447e-4 0.015625,-0.00391 0.00602,-0.00143 0.00239,0.011578 0.00391,0.017578 2.858e-4,0.00126 -2.839e-4,0.00265 0,0.00391 0.00377,0.016695 0.00442,0.034007 0.00781,0.050781 0.070191,0.028573 0.1530701,0.085998 0.2851563,0.2246094 0.031155,0.032694 -0.029129,0.071298 -0.083984,0.095703 -0.00106,0.00572 -0.019172,0.021139 -0.070313,0.082031 -0.022696,0.027024 -0.044575,0.056253 -0.066406,0.083984 0.0029,0.01964 0.00762,0.038875 0.00977,0.058594 0.00296,0.027278 -1.67e-5,0.054593 0,0.082031 -0.00913,0.068266 -0.00914,0.1316528 -0.00781,0.1992188 3.15e-5,0.00488 -4.67e-5,0.00519 0,0.00977 3.78e-5,0.013154 0.013027,0.037233 0,0.039062 -1.112e-4,0.098193 -0.086137,0.088149 -0.2441406,0.050781 -0.027511,0.00687 -0.039671,0.00506 -0.0625,0.00977 9.18e-4,0.0039 10e-4,0.00376 0.00195,0.00781 0.062805,0.2745277 0.1144169,0.5527013 0.1972656,0.8222657 0.027,0.08785 0.059903,0.173576 0.091797,0.259766 0.00961,0.02597 0.019143,0.05221 0.029297,0.07813 0.084611,-0.01095 0.1660947,-0.03058 0.2578125,-0.03711 0.087058,-0.0062 0.1744397,0 0.2617187,0 h 0.3886719 c 4.057e-4,-0.0068 0.00294,-0.01296 0.00391,-0.01953 0.00483,-0.03418 0.011465,-0.06926 0.015625,-0.103516 0.01312,-0.107975 -0.00738,-0.218122 -0.00586,-0.3261716 -5.4e-4,-0.022789 -0.0087,-0.1251703 0.00586,-0.1601563 0.00404,-0.00972 0.010483,-0.018172 0.015625,-0.027344 -0.00599,-0.013643 -0.011548,-0.027418 -0.017578,-0.041016 h -0.238286 v -1.03125 C 8.9964677,8.693843 9.0060852,8.7359842 8.9394531,8.46875 8.9308731,8.47617 8.9153881,8.489795 8.9101561,8.494141 8.8840851,8.3762073 8.8719921,8.2926446 8.8164061,8.2480473 c -0.066412,-6.574e-4 -0.1328207,-0.00109 -0.1992187,-0.00195 0.00554,0.0042 0.011671,0.00728 0.015625,0.013672 z m -0.140625,0.041016 c -0.1112591,0.029804 -0.2015041,0.05374 -0.2265625,0.0625 -4.28e-5,0.00389 2.53e-5,0.00783 0,0.011719 0.059967,-0.00216 0.1240268,-0.00148 0.1894531,0 0.00515,-0.00572 0.010528,-0.0085 0.015625,-0.013672 -0.00148,-0.00415 -0.00235,-0.00557 -0.00391,-0.00977 0.00814,-0.017049 0.017917,-0.033364 0.025391,-0.050781 z m 3.394532,-0.011719 c -0.01656,0.018593 -0.06034,0.039978 -0.08789,0.060547 h 0.08789 z M 9.7050781,9.7167969 c -0.00233,0.00445 -0.00527,0.00456 -0.00586,0.00781 -5.656e-4,0.00314 2.461e-4,0.00231 0,0.00586 0.0028,-0.00448 0.00508,-0.00919 0.00781,-0.013672 z m 0.2792969,0 c 0.022722,0.095316 -0.012515,0.1251183 -0.066406,0.2011719 -0.011023,0.015557 0.026647,-0.0285 0.039062,-0.042969 0.00221,-0.00257 0.00346,-0.011188 0.00391,-0.00781 0.00295,0.022377 0.00284,0.043861 0.00391,0.066406 -7.503e-4,0.1150252 0.018554,0.2346192 0.00586,0.3496092 -0.00415,0.03764 -0.01052,0.07411 -0.015625,0.111328 h 0.382813 0.267578 c 2e-6,-0.002 -3e-6,-0.0039 0,-0.0059 0.20381,-0.0315 0.16438,-0.02594 0.240234,-0.03711 -0.04072,-0.006 -0.122872,-0.01963 -0.132812,-0.02148 -0.04766,0.0017 -0.05555,0.0054 -0.107422,0.0059 -0.0065,4.9e-5 2.6e-5,-0.01303 0,-0.01953 0,0 0,-0.002 0,-0.002 -1.07e-4,-0.02668 7.7e-5,-0.0534 0,-0.08008 -4.53e-4,-0.156882 1.87e-4,-0.148451 0,-0.3027344 1.9e-4,-0.071378 -0.001,-0.1431104 0,-0.2148437 z m 0.621094,0.5976561 c -0.0091,-3.94e-4 0.0994,0.01413 0.107422,0.01563 0.05975,-0.0022 0.08674,-0.0029 0.134765,-0.0059 -0.08551,-0.0047 -0.221741,-0.0089 -0.242187,-0.0098 z m 0.242187,0.0098 c 0.04759,0.0026 0.07436,0.004 0.134766,0.0059 0.0079,-0.0015 0.119379,-0.01817 0.109375,-0.01758 -0.02232,0.0013 -0.157119,0.0064 -0.244141,0.01172 z m 0.244141,-0.01172 c 0,0 0,0.002 0,0.002 2.4e-5,0.0062 0.0062,0.01955 0,0.01953 -0.05433,-1.41e-4 -0.06036,-0.0024 -0.109375,-0.0039 -0.0099,0.0018 -0.09353,0.01513 -0.136719,0.02148 0.07534,0.01101 0.04085,0.0055 0.246094,0.03711 -10e-6,0.0078 -10e-7,0.01563 0,0.02344 0.0402,0.01021 0.08223,0.01869 0.117187,0.0332 0.0014,-8.7e-4 0.0024,-0.0027 0.0039,-0.0039 -3.59e-4,-0.03053 -7.72e-4,-0.05359 -0.002,-0.113281 -0.0011,-0.06181 -0.0026,-0.123737 -0.0039,-0.185547 -0.0011,-0.0928 -0.0052,-0.2456071 0,-0.3515624 0.0012,-0.024834 0.0039,-0.049433 0.0059,-0.074219 h -0.123047 c -0.0011,0.071575 1.31e-4,0.1430783 0,0.2148437 1.88e-4,0.1523907 -4.49e-4,0.1473477 0,0.3027347 7.7e-5,0.02648 0.0018,0.05165 0.002,0.07813 z m 0.609375,-0.5957031 c -2.36e-4,0.00248 -0.0029,0.031178 -0.0039,0.050781 0.09478,-0.019213 0.107153,-0.030114 0.158203,-0.050781 z M 8.21875,9.7460938 C 8.21652,9.7891918 8.22238,9.8319518 8.21289,9.875 c -0.016668,0.15416 -0.034806,0.308569 -0.052734,0.462891 0.053908,0.01494 0.1140852,0.03659 0.1503907,0.04688 0.032948,0.0093 0.066628,0.01612 0.099609,0.02539 C 8.3301043,10.194305 8.2719703,9.9711206 8.21875,9.7460938 Z M 11.691406,9.9375 c 8e-6,0.00145 -8e-6,0.00245 0,0.00391 0.0231,0.00329 0.04833,0.00647 0.08203,0.011719 -0.02573,-0.00427 -0.0119,-0.00393 -0.08203,-0.015625 z m 0.439453,0.363281 c -0.0084,0.0067 -0.02173,0.0079 -0.02734,0.01758 -0.0076,0.01308 0.01337,0.0049 0.02734,0.002 z m -0.269531,0.304688 c -0.002,0.0013 -0.0039,0.0026 -0.0059,0.0039 -0.05107,0.0357 -0.105021,0.06616 -0.158203,0.09766 v 0.002 c -4.86e-4,0.02127 -0.0018,0.04951 0,0.05859 h -0.002 c -0.0019,0.06813 -0.07215,0.06905 -0.171874,0.04492 -0.01632,0.01308 -0.03294,0.02518 -0.0332,0.02539 0.0041,-0.0066 0.0036,-0.02074 0.0078,-0.0293 -0.04684,-0.01083 -0.101373,-0.01863 -0.185547,-0.02734 -0.0068,0.0064 -0.0039,0.0156 -0.01172,0.02148 -5.28e-4,0.02723 -0.0036,0.05 -0.0039,0.07813 h 0.46875 c 0.0087,-0.03463 0.01792,-0.06913 0.02734,-0.103515 0.01789,-0.06529 0.04836,-0.115982 0.06836,-0.171875 z m 0.269531,0.08203 c -0.01703,0.06414 -0.03163,0.129075 -0.04883,0.193359 h 0.04883 z m -4.2109371,0.08594 c -0.046228,-0.02304 -0.00136,0.04086 0.048828,0.107421 h 0.042969 c -0.027779,-0.0392 -0.049264,-0.08623 -0.091797,-0.107421 z m 3.1933591,0.08984 c -0.0208,0.0094 -0.05065,0.01133 -0.07617,0.01758 h 0.08984 c -0.0052,-0.0056 -0.0093,-0.01162 -0.01367,-0.01758 z m -0.847656,0.01563 c 0.0026,7.01e-4 0.0052,0.0012 0.0078,0.002 h 0.5 c -3.26e-4,-2.79e-4 -0.0016,-0.0017 -0.002,-0.002 h -0.433593 z"
       clip-path="url(#clipPath722)" />
  </g>
  <path
     style="fill:#f9f9f9;fill-opacity:1;fill-rule:evenodd;stroke-width:0.0422363"
     d="M 8.3821916,14.013574 C 8.1135189,13.786939 7.8713618,13.574439 7.8440649,13.541355 7.8036631,13.492387 8.0399348,13.192599 9.1146777,11.929173 11.298954,9.3614178 11.170794,9.5238968 11.100823,9.4111681 11.04854,9.3269353 9.899379,8.0326191 8.1343869,6.0700283 L 7.6185415,5.4964317 7.8624317,5.2675362 C 8.2780899,4.8774331 8.6992855,4.5266607 8.7529662,4.5258977 c 0.046414,-6.599e-4 1.0397067,1.0767031 2.8159628,3.0542993 0.529882,0.5899455 0.66266,0.7163477 0.70505,0.6711941 0.02872,-0.030596 0.698087,-0.8107231 1.487473,-1.733615 0.789389,-0.922892 1.456987,-1.7009599 1.483555,-1.7290399 0.0372,-0.039328 0.170354,0.050189 0.579753,0.3898051 0.292295,0.2424727 0.537002,0.4564989 0.543792,0.4756138 0.02261,0.063672 -0.466613,0.6641406 -1.985295,2.4367322 -0.523838,0.6114159 -0.980613,1.14394 -1.015056,1.1833869 -0.133904,0.1533528 -0.136332,0.1502821 2.071846,2.6139558 1.359691,1.517009 1.250778,1.384228 1.203603,1.467386 -0.05073,0.08943 -1.04282,0.947534 -1.079432,0.93366 -0.02953,-0.01124 -0.100272,-0.08827 -2.118661,-2.308727 -0.6653,-0.731903 -1.2217,-1.330735 -1.236441,-1.330735 -0.01474,0 -0.551604,0.608202 -1.19303,1.351555 -1.595666,1.849229 -2.0792414,2.401087 -2.1149609,2.413605 -0.016741,0.0059 -0.2502607,-0.174763 -0.5189335,-0.4014 z"
     id="path759" />
</svg>
