<?xml version="1.0" encoding="UTF-8" standalone="no"?>
<svg
   xmlns:dc="http://purl.org/dc/elements/1.1/"
   xmlns:cc="http://creativecommons.org/ns#"
   xmlns:rdf="http://www.w3.org/1999/02/22-rdf-syntax-ns#"
   xmlns:svg="http://www.w3.org/2000/svg"
   xmlns="http://www.w3.org/2000/svg"
   xmlns:sodipodi="http://sodipodi.sourceforge.net/DTD/sodipodi-0.dtd"
   xmlns:inkscape="http://www.inkscape.org/namespaces/inkscape"
   height="16"
   viewBox="0 0 16 16"
   width="16"
   version="1.1"
   id="svg865"
   sodipodi:docname="SaveAs.svg"
   inkscape:version="1.0.1 (3bc2e813f5, 2020-09-07)">
  <metadata
     id="metadata871">
    <rdf:RDF>
      <cc:Work
         rdf:about="">
        <dc:format>image/svg+xml</dc:format>
        <dc:type
           rdf:resource="http://purl.org/dc/dcmitype/StillImage" />
        <dc:title></dc:title>
      </cc:Work>
    </rdf:RDF>
  </metadata>
  <defs
     id="defs869" />
  <sodipodi:namedview
     pagecolor="#ffffff"
     bordercolor="#666666"
     borderopacity="1"
     objecttolerance="10"
     gridtolerance="10"
     guidetolerance="10"
     inkscape:pageopacity="0"
     inkscape:pageshadow="2"
     inkscape:window-width="1280"
     inkscape:window-height="738"
     id="namedview867"
     showgrid="false"
     inkscape:zoom="33"
     inkscape:cx="8"
     inkscape:cy="8"
     inkscape:window-x="-8"
     inkscape:window-y="-8"
     inkscape:window-maximized="1"
     inkscape:current-layer="svg865" />
  <path
     d="m3 1c-1.1046 0-2 .89543-2 2v10c0 1.1046.89543 2 2 2h10c1.1046 0 2-.89543 2-2v-7-1-1l-3-3h-1v5 1h-8zm1 0v5h3v-5zm4 8c1.1046 0 2 .89543 2 2 0 1.1046-.89543 2-2 2s-2-.89543-2-2c0-1.1046.89543-2 2-2z"
     fill="#e0e0e0"
     id="path863" />
  <rect
     style="opacity:0.999;fill:#84ffb1;fill-opacity:1;stroke:none;stroke-width:1.12811"
     id="rect2127"
     width="3"
     height="5"
     x="4"
     y="1" />
</svg>
